<svg xmlns="http://www.w3.org/2000/svg" width="232" height="52" viewBox="0 0 232 52" role="img" aria-label="Pay with crypto — egofi">
  <rect x="0.5" y="0.5" width="231" height="51" fill="#FFFFFF" stroke="#C3D3E7"/>
  <g font-family="Inter, ui-sans-serif, system-ui, -apple-system, Segoe UI, Roboto, sans-serif">
    <text x="20" y="23" font-size="11" font-weight="500" fill="#5B80B0">Pay in crypto with</text>
    <text x="20" y="40" font-size="18" font-weight="800" fill="#071C3D">egofi<tspan fill="#1D4ED8">.</tspan></text>
  </g>
  <g transform="translate(180 14)">
    <circle cx="12" cy="12" r="12" fill="#1D4ED8"/>
    <path d="M12 5.5a1 1 0 0 1 1 1v.4h1.2a2 2 0 1 1 0 4H13v2.2h1a1.6 1.6 0 0 1 0 3.2h-1v.4a1 1 0 1 1-2 0v-.4H9.8a1.6 1.6 0 0 1 0-3.2H11v-2.2H9.8a2 2 0 1 1 0-4H11v-.4a1 1 0 0 1 1-1z" fill="#fff"/>
  </g>
</svg>
